<mxfile host="app.diagrams.net" modified="2021-01-06T13:01:44.462Z" agent="5.0 (Windows NT 10.0; Win64; x64) AppleWebKit/537.36 (KHTML, like Gecko) Chrome/87.0.4280.88 Safari/537.36" etag="nxDd7TpNrOx4kAUefQZJ" version="13.6.5" type="github">
  <diagram id="NroQVGhwpjugmBi_NELB" name="第 1 页">
    <mxGraphModel dx="877" dy="469" grid="1" gridSize="10" guides="1" tooltips="1" connect="1" arrows="1" fold="1" page="1" pageScale="1" pageWidth="827" pageHeight="1169" math="0" shadow="0">
      <root>
        <mxCell id="0" />
        <mxCell id="1" parent="0" />
        <mxCell id="gGPMWTZoRvZw8eCMUXb5-1" value="" style="rounded=0;whiteSpace=wrap;html=1;fillColor=#dae8fc;strokeColor=#6c8ebf;" vertex="1" parent="1">
          <mxGeometry x="33" y="130" width="760" height="360" as="geometry" />
        </mxCell>
        <mxCell id="gGPMWTZoRvZw8eCMUXb5-2" value="" style="rounded=0;whiteSpace=wrap;html=1;fillColor=#ffe6cc;strokeColor=#d79b00;" vertex="1" parent="1">
          <mxGeometry x="33" y="130" width="760" height="150" as="geometry" />
        </mxCell>
        <mxCell id="gGPMWTZoRvZw8eCMUXb5-15" style="edgeStyle=orthogonalEdgeStyle;rounded=0;orthogonalLoop=1;jettySize=auto;html=1;exitX=0.5;exitY=1;exitDx=0;exitDy=0;entryX=0.5;entryY=0;entryDx=0;entryDy=0;endArrow=none;endFill=0;" edge="1" parent="1" source="gGPMWTZoRvZw8eCMUXb5-3" target="gGPMWTZoRvZw8eCMUXb5-8">
          <mxGeometry relative="1" as="geometry">
            <Array as="points">
              <mxPoint x="127" y="285" />
              <mxPoint x="127" y="350" />
            </Array>
          </mxGeometry>
        </mxCell>
        <mxCell id="gGPMWTZoRvZw8eCMUXb5-21" style="rounded=0;orthogonalLoop=1;jettySize=auto;html=1;exitX=1;exitY=1;exitDx=0;exitDy=0;entryX=0.341;entryY=-0.007;entryDx=0;entryDy=0;endArrow=classic;endFill=1;entryPerimeter=0;" edge="1" parent="1" source="gGPMWTZoRvZw8eCMUXb5-3" target="gGPMWTZoRvZw8eCMUXb5-9">
          <mxGeometry relative="1" as="geometry" />
        </mxCell>
        <mxCell id="gGPMWTZoRvZw8eCMUXb5-3" value="Serial&lt;br&gt;-XX:+UseSerialGC&lt;br&gt;复制算法&lt;br&gt;&lt;font color=&quot;#3333ff&quot;&gt;(DefNew)&lt;/font&gt;" style="rounded=0;whiteSpace=wrap;html=1;" vertex="1" parent="1">
          <mxGeometry x="63" y="172.5" width="127" height="67.5" as="geometry" />
        </mxCell>
        <mxCell id="gGPMWTZoRvZw8eCMUXb5-4" value="ParNew&lt;br&gt;-XX:+UseParNewGC&lt;br&gt;复制算法&lt;br&gt;&lt;font color=&quot;#3333ff&quot;&gt;(ParNew)&lt;/font&gt;" style="rounded=0;whiteSpace=wrap;html=1;" vertex="1" parent="1">
          <mxGeometry x="263" y="174" width="150" height="65" as="geometry" />
        </mxCell>
        <mxCell id="gGPMWTZoRvZw8eCMUXb5-29" style="edgeStyle=none;rounded=0;orthogonalLoop=1;jettySize=auto;html=1;exitX=0.25;exitY=1;exitDx=0;exitDy=0;entryX=0.75;entryY=0;entryDx=0;entryDy=0;startArrow=none;startFill=0;endArrow=classic;endFill=1;" edge="1" parent="1" source="gGPMWTZoRvZw8eCMUXb5-5" target="gGPMWTZoRvZw8eCMUXb5-9">
          <mxGeometry relative="1" as="geometry" />
        </mxCell>
        <mxCell id="gGPMWTZoRvZw8eCMUXb5-30" value="JDK1.6之前" style="edgeLabel;html=1;align=center;verticalAlign=middle;resizable=0;points=[];labelBackgroundColor=#FF0000;" vertex="1" connectable="0" parent="gGPMWTZoRvZw8eCMUXb5-29">
          <mxGeometry x="-0.2529" y="3" relative="1" as="geometry">
            <mxPoint as="offset" />
          </mxGeometry>
        </mxCell>
        <mxCell id="gGPMWTZoRvZw8eCMUXb5-5" value="Parallel Scavenge(吞吐量优先)&lt;br&gt;-XX:+UseParallelGC&lt;br&gt;复制算法&lt;br&gt;&lt;font color=&quot;#3333ff&quot;&gt;(PSYoungGen)&lt;/font&gt;" style="rounded=0;whiteSpace=wrap;html=1;" vertex="1" parent="1">
          <mxGeometry x="453" y="174" width="180" height="62.5" as="geometry" />
        </mxCell>
        <mxCell id="gGPMWTZoRvZw8eCMUXb5-6" value="G1&lt;br&gt;-XX:+UseG1GC&lt;br&gt;整体标记-整理&lt;br&gt;局部复制算法" style="rounded=0;whiteSpace=wrap;html=1;direction=south;fillColor=#d5e8d4;strokeColor=#82b366;" vertex="1" parent="1">
          <mxGeometry x="660" y="240" width="123" height="80" as="geometry" />
        </mxCell>
        <mxCell id="gGPMWTZoRvZw8eCMUXb5-7" value="&lt;b&gt;&lt;font style=&quot;font-size: 15px&quot;&gt;Young Generation&lt;/font&gt;&lt;/b&gt;" style="text;html=1;strokeColor=none;fillColor=none;align=center;verticalAlign=middle;whiteSpace=wrap;rounded=0;" vertex="1" parent="1">
          <mxGeometry x="335" y="140" width="157" height="20" as="geometry" />
        </mxCell>
        <mxCell id="gGPMWTZoRvZw8eCMUXb5-26" style="edgeStyle=none;rounded=0;orthogonalLoop=1;jettySize=auto;html=1;exitX=1;exitY=1;exitDx=0;exitDy=0;entryX=0;entryY=0.5;entryDx=0;entryDy=0;startArrow=none;startFill=0;endArrow=classic;endFill=1;" edge="1" parent="1" source="gGPMWTZoRvZw8eCMUXb5-8" target="gGPMWTZoRvZw8eCMUXb5-9">
          <mxGeometry relative="1" as="geometry" />
        </mxCell>
        <mxCell id="gGPMWTZoRvZw8eCMUXb5-32" value="后备" style="edgeLabel;html=1;align=center;verticalAlign=middle;resizable=0;points=[];labelBackgroundColor=#33FF33;" vertex="1" connectable="0" parent="gGPMWTZoRvZw8eCMUXb5-26">
          <mxGeometry x="-0.3256" y="-1" relative="1" as="geometry">
            <mxPoint x="6.32" as="offset" />
          </mxGeometry>
        </mxCell>
        <mxCell id="gGPMWTZoRvZw8eCMUXb5-27" style="edgeStyle=none;rounded=0;orthogonalLoop=1;jettySize=auto;html=1;exitX=0.5;exitY=0;exitDx=0;exitDy=0;entryX=0.25;entryY=1;entryDx=0;entryDy=0;startArrow=none;startFill=0;endArrow=classic;endFill=1;" edge="1" parent="1" source="gGPMWTZoRvZw8eCMUXb5-8" target="gGPMWTZoRvZw8eCMUXb5-4">
          <mxGeometry relative="1" as="geometry" />
        </mxCell>
        <mxCell id="gGPMWTZoRvZw8eCMUXb5-8" value="CMS(并发标记清除)&lt;br&gt;-XX:+UseConcMarkSweepGC&lt;br&gt;标记-清除" style="rounded=0;whiteSpace=wrap;html=1;" vertex="1" parent="1">
          <mxGeometry x="50" y="340" width="177" height="70" as="geometry" />
        </mxCell>
        <mxCell id="gGPMWTZoRvZw8eCMUXb5-18" style="edgeStyle=orthogonalEdgeStyle;rounded=0;orthogonalLoop=1;jettySize=auto;html=1;exitX=0.5;exitY=0;exitDx=0;exitDy=0;entryX=0.5;entryY=1;entryDx=0;entryDy=0;endArrow=none;endFill=0;startArrow=classic;startFill=1;" edge="1" parent="1" source="gGPMWTZoRvZw8eCMUXb5-9" target="gGPMWTZoRvZw8eCMUXb5-4">
          <mxGeometry relative="1" as="geometry" />
        </mxCell>
        <mxCell id="gGPMWTZoRvZw8eCMUXb5-22" value="deprecated" style="edgeLabel;html=1;align=center;verticalAlign=middle;resizable=0;points=[];labelBackgroundColor=#FF0000;" vertex="1" connectable="0" parent="gGPMWTZoRvZw8eCMUXb5-18">
          <mxGeometry x="0.1936" y="-1" relative="1" as="geometry">
            <mxPoint x="-1" y="-8.97" as="offset" />
          </mxGeometry>
        </mxCell>
        <mxCell id="gGPMWTZoRvZw8eCMUXb5-9" value="Serial Old&lt;br&gt;标记-整理&lt;br&gt;&lt;font color=&quot;#3333ff&quot;&gt;(Tenured)&lt;/font&gt;" style="rounded=0;whiteSpace=wrap;html=1;" vertex="1" parent="1">
          <mxGeometry x="277.5" y="410" width="121" height="60" as="geometry" />
        </mxCell>
        <mxCell id="gGPMWTZoRvZw8eCMUXb5-28" style="edgeStyle=none;rounded=0;orthogonalLoop=1;jettySize=auto;html=1;exitX=0.5;exitY=0;exitDx=0;exitDy=0;entryX=0.5;entryY=1;entryDx=0;entryDy=0;startArrow=classic;startFill=1;endArrow=classic;endFill=1;" edge="1" parent="1" source="gGPMWTZoRvZw8eCMUXb5-10" target="gGPMWTZoRvZw8eCMUXb5-5">
          <mxGeometry relative="1" as="geometry" />
        </mxCell>
        <mxCell id="gGPMWTZoRvZw8eCMUXb5-31" value="JDK1.6及以后" style="edgeLabel;html=1;align=center;verticalAlign=middle;resizable=0;points=[];labelBackgroundColor=#33FF33;" vertex="1" connectable="0" parent="gGPMWTZoRvZw8eCMUXb5-28">
          <mxGeometry x="0.2182" relative="1" as="geometry">
            <mxPoint as="offset" />
          </mxGeometry>
        </mxCell>
        <mxCell id="gGPMWTZoRvZw8eCMUXb5-10" value="Parallel Old(吞吐量优先)&lt;br&gt;-XX:+UseParallelOldGC&lt;br&gt;标记-整理&lt;br&gt;&lt;font color=&quot;#3333ff&quot;&gt;(ParOldGen)&lt;/font&gt;" style="rounded=0;whiteSpace=wrap;html=1;" vertex="1" parent="1">
          <mxGeometry x="458" y="320" width="170" height="80" as="geometry" />
        </mxCell>
        <mxCell id="gGPMWTZoRvZw8eCMUXb5-25" value="&lt;b&gt;&lt;font style=&quot;font-size: 15px&quot;&gt;Tenured Generation&lt;/font&gt;&lt;/b&gt;" style="text;html=1;strokeColor=none;fillColor=none;align=center;verticalAlign=middle;whiteSpace=wrap;rounded=0;" vertex="1" parent="1">
          <mxGeometry x="626" y="460" width="157" height="20" as="geometry" />
        </mxCell>
        <mxCell id="gGPMWTZoRvZw8eCMUXb5-33" value="" style="verticalLabelPosition=bottom;verticalAlign=top;html=1;shape=mxgraph.basic.x;labelBackgroundColor=#33FF33;fillColor=#FF0000;" vertex="1" parent="1">
          <mxGeometry x="106.5" y="290" width="40" height="30" as="geometry" />
        </mxCell>
        <mxCell id="gGPMWTZoRvZw8eCMUXb5-36" value="JDK1.8" style="whiteSpace=wrap;html=1;shape=mxgraph.basic.rectCallout;dx=30;dy=15;boundedLbl=1;labelBackgroundColor=#33FF33;fillColor=#FFFF66;strokeColor=#FFFF66;" vertex="1" parent="1">
          <mxGeometry x="680" y="199" width="83" height="40" as="geometry" />
        </mxCell>
      </root>
    </mxGraphModel>
  </diagram>
</mxfile>
